<svg width="118" height="27" viewBox="0 0 118 27" fill="none" xmlns="http://www.w3.org/2000/svg">
<path d="M14.084 6.13672C10.6738 6.13672 7.77344 10.1973 7.77344 15.1895C7.77344 18.4062 9.44336 20.498 12.0098 20.498C15.4199 20.498 18.3379 16.4551 18.3379 11.4277C18.3379 8.19336 16.6504 6.13672 14.084 6.13672ZM11.7812 26.4395C4.53906 26.4395 0.214844 21.7988 0.214844 15.6465C0.214844 6.34766 6.47266 0.195312 14.2598 0.195312C21.6953 0.195312 25.8965 4.85352 25.8965 10.9883C25.8965 20.3223 19.5508 26.4395 11.7812 26.4395ZM40.0645 26H30.7129L28.1113 0.634766H36.4258L36.7598 18.4941H36.9004L44.7051 0.634766H53.1602L40.0645 26ZM68.998 20.0938L67.75 26H49.8555L55.252 0.634766H73.1289L71.8633 6.54102H61.4395L60.5781 10.6543H70.3516L69.209 15.998H59.4355L58.5566 20.0938H68.998ZM90.2324 20.0938L88.9844 26H71.0898L76.4863 0.634766H94.3633L93.0977 6.54102H82.6738L81.8125 10.6543H91.5859L90.4434 15.998H80.6699L79.791 20.0938H90.2324ZM102.66 12.3945H105.982C108.479 12.3945 110.043 10.9004 110.043 8.82617C110.043 7.0332 108.918 6.13672 106.861 6.13672H104.014L102.66 12.3945ZM97.7207 0.634766H109.129C114.473 0.634766 117.514 3.86914 117.514 8.21094C117.514 11.7969 115.422 15.2773 111.555 16.7891L114.367 26H106.598L104.207 17.4922H101.588L99.7773 26H92.3242L97.7207 0.634766Z" fill="#0E1014" style="fill:#0E1014;fill:color(display-p3 0.0549 0.0627 0.0784);fill-opacity:1;"/>
</svg>
