<svg width="32" height="33" viewBox="0 0 32 33" fill="none" xmlns="http://www.w3.org/2000/svg">
<mask id="mask0_411_87" style="mask-type:alpha" maskUnits="userSpaceOnUse" x="0" y="0" width="32" height="33">
<rect y="0.5" width="32" height="32" fill="#D9D9D9" style="fill:#D9D9D9;fill:color(display-p3 0.8510 0.8510 0.8510);fill-opacity:1;"/>
</mask>
<g mask="url(#mask0_411_87)">
<path d="M9.33325 29.8333C8.59992 29.8333 7.97214 29.5722 7.44992 29.05C6.9277 28.5278 6.66659 27.9 6.66659 27.1667C6.66659 26.4333 6.9277 25.8056 7.44992 25.2833C7.97214 24.7611 8.59992 24.5 9.33325 24.5C10.0666 24.5 10.6944 24.7611 11.2166 25.2833C11.7388 25.8056 11.9999 26.4333 11.9999 27.1667C11.9999 27.9 11.7388 28.5278 11.2166 29.05C10.6944 29.5722 10.0666 29.8333 9.33325 29.8333ZM22.6666 29.8333C21.9333 29.8333 21.3055 29.5722 20.7833 29.05C20.261 28.5278 19.9999 27.9 19.9999 27.1667C19.9999 26.4333 20.261 25.8056 20.7833 25.2833C21.3055 24.7611 21.9333 24.5 22.6666 24.5C23.3999 24.5 24.0277 24.7611 24.5499 25.2833C25.0721 25.8056 25.3333 26.4333 25.3333 27.1667C25.3333 27.9 25.0721 28.5278 24.5499 29.05C24.0277 29.5722 23.3999 29.8333 22.6666 29.8333ZM8.19992 8.5L11.3999 15.1667H20.7333L24.3999 8.5H8.19992ZM6.93325 5.83333H26.5999C27.111 5.83333 27.4999 6.06111 27.7666 6.51666C28.0333 6.97222 28.0444 7.43333 27.7999 7.9L23.0666 16.4333C22.8221 16.8778 22.4944 17.2222 22.0833 17.4667C21.6721 17.7111 21.2221 17.8333 20.7333 17.8333H10.7999L9.33325 20.5H25.3333V23.1667H9.33325C8.33325 23.1667 7.5777 22.7278 7.06659 21.85C6.55547 20.9722 6.53325 20.1 6.99992 19.2333L8.79992 15.9667L3.99992 5.83333H1.33325V3.16666H5.66659L6.93325 5.83333Z" fill="#0E1014" style="fill:#0E1014;fill:color(display-p3 0.0549 0.0627 0.0784);fill-opacity:1;"/>
</g>
</svg>
