<svg width="32" height="33" viewBox="0 0 32 33" fill="none" xmlns="http://www.w3.org/2000/svg">
<mask id="mask0_411_75" style="mask-type:alpha" maskUnits="userSpaceOnUse" x="0" y="0" width="32" height="33">
<rect y="0.5" width="32" height="32" fill="#D9D9D9" style="fill:#D9D9D9;fill:color(display-p3 0.8510 0.8510 0.8510);fill-opacity:1;"/>
</mask>
<g mask="url(#mask0_411_75)">
<path d="M28.0334 15.2333V25.8333C28.0334 26.5667 27.7723 27.1944 27.25 27.7167C26.7278 28.2389 26.1 28.5 25.3667 28.5H6.70004C5.9667 28.5 5.33893 28.2389 4.8167 27.7167C4.29448 27.1944 4.03337 26.5667 4.03337 25.8333V15.2333C3.52226 14.7667 3.12781 14.1667 2.85004 13.4333C2.57226 12.7 2.5667 11.9 2.83337 11.0333L4.23337 6.5C4.41115 5.92222 4.72781 5.44444 5.18337 5.06667C5.63893 4.68889 6.1667 4.5 6.7667 4.5H25.3C25.9 4.5 26.4223 4.68333 26.8667 5.05C27.3111 5.41667 27.6334 5.9 27.8334 6.5L29.2334 11.0333C29.5 11.9 29.4945 12.6889 29.2167 13.4C28.9389 14.1111 28.5445 14.7222 28.0334 15.2333ZM18.9667 13.8333C19.5667 13.8333 20.0223 13.6278 20.3334 13.2167C20.6445 12.8056 20.7667 12.3444 20.7 11.8333L19.9667 7.16667H17.3667V12.1C17.3667 12.5667 17.5223 12.9722 17.8334 13.3167C18.1445 13.6611 18.5223 13.8333 18.9667 13.8333ZM12.9667 13.8333C13.4778 13.8333 13.8945 13.6611 14.2167 13.3167C14.5389 12.9722 14.7 12.5667 14.7 12.1V7.16667H12.1L11.3667 11.8333C11.2778 12.3667 11.3945 12.8333 11.7167 13.2333C12.0389 13.6333 12.4556 13.8333 12.9667 13.8333ZM7.03337 13.8333C7.43337 13.8333 7.78337 13.6889 8.08337 13.4C8.38337 13.1111 8.5667 12.7444 8.63337 12.3L9.3667 7.16667H6.7667L5.43337 11.6333C5.30004 12.0778 5.37226 12.5556 5.65004 13.0667C5.92781 13.5778 6.38893 13.8333 7.03337 13.8333ZM25.0334 13.8333C25.6778 13.8333 26.1445 13.5778 26.4334 13.0667C26.7223 12.5556 26.7889 12.0778 26.6334 11.6333L25.2334 7.16667H22.7L23.4334 12.3C23.5 12.7444 23.6834 13.1111 23.9834 13.4C24.2834 13.6889 24.6334 13.8333 25.0334 13.8333ZM6.70004 25.8333H25.3667V16.4333C25.2556 16.4778 25.1834 16.5 25.15 16.5H25.0334C24.4334 16.5 23.9056 16.4 23.45 16.2C22.9945 16 22.5445 15.6778 22.1 15.2333C21.7 15.6333 21.2445 15.9444 20.7334 16.1667C20.2223 16.3889 19.6778 16.5 19.1 16.5C18.5 16.5 17.9389 16.3889 17.4167 16.1667C16.8945 15.9444 16.4334 15.6333 16.0334 15.2333C15.6556 15.6333 15.2167 15.9444 14.7167 16.1667C14.2167 16.3889 13.6778 16.5 13.1 16.5C12.4556 16.5 11.8723 16.3889 11.35 16.1667C10.8278 15.9444 10.3667 15.6333 9.9667 15.2333C9.50004 15.7 9.03893 16.0278 8.58337 16.2167C8.12781 16.4056 7.61115 16.5 7.03337 16.5H6.88337C6.82781 16.5 6.7667 16.4778 6.70004 16.4333V25.8333Z" fill="white" style="fill:white;fill:white;fill-opacity:1;"/>
</g>
</svg>
